<svg xmlns="http://www.w3.org/2000/svg" xmlns:xlink="http://www.w3.org/1999/xlink" width="109" height="61.982" viewBox="0 0 109 61.982">
  <defs>
    <clipPath id="clip-path">
      <path id="Clip_4" data-name="Clip 4" d="M0,0H44.891V20.268H0Z" transform="translate(0 0.018)" fill="none"/>
    </clipPath>
  </defs>
  <g id="logo_subter" data-name="logo subter" transform="translate(0 -0.018)">
    <g id="Group_11" data-name="Group 11">
      <g id="Group_8" data-name="Group 8">
        <path id="Fill_1" data-name="Fill 1" d="M21.482,39.328h0a55.82,55.82,0,0,1-9.86-3.744,20.811,20.811,0,0,1-3.593-2.5A29.783,29.783,0,0,1,3.4,28.16,50.759,50.759,0,0,1,.085,22.93c-.019-.038-.035-.067-.048-.089-.048-.086-.048-.086,0-.219.013-.035.029-.08.048-.138l2.239-6.421L4.562,9.643c.193-.584.3-.823.3-.825h0l-.027-.023c-.076-.067-.309-.273-.681-.616A4.048,4.048,0,0,1,2.817,5.656a4.3,4.3,0,0,1,.856-2.99A4.028,4.028,0,0,1,6.378.944,4.086,4.086,0,0,1,7.038.889,3.275,3.275,0,0,1,9.347,1.8a5.947,5.947,0,0,0,.695.572,5.414,5.414,0,0,0,.678-.317,25.325,25.325,0,0,1,7.6-1.874A29.488,29.488,0,0,1,21.592,0a30.689,30.689,0,0,1,8.784,1.316A19.521,19.521,0,0,1,32.211,2l.368.151c.305.124.469.178.471.178l.287-.257a4.2,4.2,0,0,1,1.5-.946A4.963,4.963,0,0,1,36.5.815a4.021,4.021,0,0,1,2.235.691A3.627,3.627,0,0,1,40.5,4.668a5.216,5.216,0,0,1-1.671,3.314,5.167,5.167,0,0,1-.688.595,8.86,8.86,0,0,0,.35.855c1.083,2.6,1.987,5.393,2.861,8.095.3.931.613,1.894.924,2.825.071.212.15.483.234.77a14.14,14.14,0,0,0,.486,1.474l.113.335a65.2,65.2,0,0,1-3.857,5.754,34.459,34.459,0,0,1-3.179,3.472,20.236,20.236,0,0,1-4.395,3.3,58.685,58.685,0,0,1-10.191,3.874Zm.03-33.173h0a6.575,6.575,0,0,0-4.868,2.462A9.821,9.821,0,0,0,14.9,11.694a12.949,12.949,0,0,0-.994,6.089c.3,2.453,1.4,4.033,3.363,4.831a11.4,11.4,0,0,0,4.294.885,10.711,10.711,0,0,0,4.677-1.111,4.9,4.9,0,0,0,2.607-3.094,6.861,6.861,0,0,0,.333-2.43,12.594,12.594,0,0,0-1.473-6.151,8.294,8.294,0,0,0-2.754-3.436,6.215,6.215,0,0,0-3.441-1.121Zm8.74,1.678h0a6.526,6.526,0,0,0-2.311.439c-.113.043-.174.1-.177.158s.054.128.163.184a5.381,5.381,0,0,0,1.687.642h.025A1.727,1.727,0,0,0,31,8.121a.237.237,0,0,0-.034-.187.313.313,0,0,0-.225-.081c-.161-.013-.325-.019-.486-.019Zm-17.718.023c-.105,0-.192,0-.272.007a.234.234,0,0,0-.173.071.237.237,0,0,0-.039.185,1.372,1.372,0,0,0,1.328,1.132,1.155,1.155,0,0,0,.235-.024,5.646,5.646,0,0,0,1.374-.547l.077-.039.038-.018c.088-.041.187-.087.172-.211s-.119-.147-.212-.171l-.042-.011-.1-.029a6.466,6.466,0,0,0-1.8-.346c-.061,0-.121,0-.181.005l-.2,0Z" transform="translate(0.917 22.672)"/>
        <g id="Group_5" data-name="Group 5">
          <path id="Clip_4-2" data-name="Clip 4" d="M0,0H44.891V20.268H0Z" transform="translate(0 0.018)" fill="none"/>
          <g id="Group_5-2" data-name="Group 5" clip-path="url(#clip-path)">
            <path id="Fill_3" data-name="Fill 3" d="M.007,15.217c.847-.175,1.693-.358,2.542-.524,2.554-.5,5.108-1,7.666-1.48a.764.764,0,0,0,.665-.7q1.2-5.477,2.425-10.949c.225-1.014.436-1.2,1.46-1.356a11.13,11.13,0,0,1,4.325.028,5.6,5.6,0,0,1,2.675,1.309.508.508,0,0,0,.782.026A6.8,6.8,0,0,1,26.76.022a14.969,14.969,0,0,1,3.279.241,1.139,1.139,0,0,1,.929.988q.754,3.434,1.514,6.866c.323,1.453.672,2.9.976,4.356a.851.851,0,0,0,.806.754c3.42.622,6.835,1.273,10.25,1.917a2.748,2.748,0,0,1,.376.151,50.282,50.282,0,0,1-22.517,4.972A49.793,49.793,0,0,1,0,15.379q0-.081.007-.162" transform="translate(0 0.018)"/>
          </g>
        </g>
        <path id="Fill_6" data-name="Fill 6" d="M3.306,0A3.409,3.409,0,0,1,6.049,1.223,1.76,1.76,0,0,1,6.41,2.509.543.543,0,0,1,5.9,3q-.754.133-1.51.249c-.63.1-.816.3-.821.929,0,.567.025,1.136-.009,1.7-.027.45.166.627.583.662.472.039.942.1,1.412.156.272.031.555.112.507.44s-.34.26-.577.219a12.829,12.829,0,0,0-4.57.008c-.225.041-.535.117-.6-.2S.53,6.736.8,6.7c.56-.076,1.119-.159,1.68-.217a.369.369,0,0,0,.386-.422c0-.7-.006-1.39,0-2.085a.517.517,0,0,0-.4-.519A6.873,6.873,0,0,0,.993,3.087C.65,3.033.193,3.08.063,2.646A1.473,1.473,0,0,1,.329,1.295,3.474,3.474,0,0,1,3.306,0" transform="translate(19.259 30.075)"/>
      </g>
      <path id="Subter" d="M40.659,13a4.474,4.474,0,0,1-1.506-.961,4.11,4.11,0,0,1-.944-1.429,4.712,4.712,0,0,1-.325-1.755V8.522A5.686,5.686,0,0,1,38.2,6.587a4.4,4.4,0,0,1,.9-1.515,4.06,4.06,0,0,1,1.416-.992,5.168,5.168,0,0,1,3.7-.025,3.664,3.664,0,0,1,1.331.926A3.9,3.9,0,0,1,46.36,6.42a6.073,6.073,0,0,1,.272,1.871V9.346H40.495a2.516,2.516,0,0,0,.254.824,2.134,2.134,0,0,0,.49.631,2.174,2.174,0,0,0,.7.408,2.619,2.619,0,0,0,.9.146,3.292,3.292,0,0,0,1.3-.254,2.606,2.606,0,0,0,1.024-.785l1.264,1.364a3.748,3.748,0,0,1-.579.618,3.95,3.95,0,0,1-.82.536,4.939,4.939,0,0,1-1.064.377,5.57,5.57,0,0,1-1.3.142A5.415,5.415,0,0,1,40.659,13Zm-6.463.2a2.212,2.212,0,0,1-.868-.477,2.131,2.131,0,0,1-.557-.85,3.607,3.607,0,0,1-.2-1.261v-4.9H31.168V3.9h1.408V1.614H35.15V3.9H36.8v1.82H35.15V10.35a1.566,1.566,0,0,0,.062.481.654.654,0,0,0,.187.3.667.667,0,0,0,.308.146,2.084,2.084,0,0,0,.432.039c.154,0,.3-.005.423-.017s.239-.026.334-.043v1.88a6.193,6.193,0,0,1-.7.158,5.128,5.128,0,0,1-.86.065A4.022,4.022,0,0,1,34.2,13.2Zm-8.912-.155a3.177,3.177,0,0,1-1.056-.854l-.116.987H21.8V0h2.574V4.729a2.988,2.988,0,0,1,1-.742,3.2,3.2,0,0,1,1.34-.261,3.674,3.674,0,0,1,1.652.351,3.288,3.288,0,0,1,1.181.979,4.311,4.311,0,0,1,.7,1.493,7.352,7.352,0,0,1,.231,1.9v.18a7.43,7.43,0,0,1-.231,1.914,4.354,4.354,0,0,1-.7,1.493,3.225,3.225,0,0,1-1.172.974,3.673,3.673,0,0,1-1.648.348A3.2,3.2,0,0,1,25.285,13.049Zm-11.861.112a2.559,2.559,0,0,1-1.011-.609,2.765,2.765,0,0,1-.654-1.073A4.74,4.74,0,0,1,11.526,9.9V3.9H14.1V9.921a1.9,1.9,0,0,0,.1.661,1.067,1.067,0,0,0,.717.686,1.839,1.839,0,0,0,.553.077,2.418,2.418,0,0,0,1.131-.231,1.622,1.622,0,0,0,.668-.644V3.9h2.583v9.286H17.432l-.071-.944a3.111,3.111,0,0,1-1.1.823,3.705,3.705,0,0,1-1.533.293A4.156,4.156,0,0,1,13.424,13.161Zm-9.46.085a6.3,6.3,0,0,1-1.225-.33,5.363,5.363,0,0,1-1.082-.558,3.911,3.911,0,0,1-.869-.789A3.52,3.52,0,0,1,.21,10.535,3.751,3.751,0,0,1,0,9.252H2.681a2.23,2.23,0,0,0,.187.961,1.662,1.662,0,0,0,.521.639,2.211,2.211,0,0,0,.806.356,4.605,4.605,0,0,0,1.051.112,3.335,3.335,0,0,0,.9-.108,1.869,1.869,0,0,0,.633-.3,1.17,1.17,0,0,0,.37-.45,1.331,1.331,0,0,0,.12-.562,1.66,1.66,0,0,0-.1-.588,1.141,1.141,0,0,0-.378-.485,3.515,3.515,0,0,0-.775-.437,12.565,12.565,0,0,0-1.279-.455A16.275,16.275,0,0,1,3.06,7.321,6.214,6.214,0,0,1,1.679,6.51,3.663,3.663,0,0,1,.743,5.432,2.856,2.856,0,0,1,.4,4.008,2.954,2.954,0,0,1,.752,2.579a3.267,3.267,0,0,1,.989-1.1A4.955,4.955,0,0,1,3.255.768,6.961,6.961,0,0,1,5.184.515,6.3,6.3,0,0,1,7.144.8a4.557,4.557,0,0,1,1.5.8,3.509,3.509,0,0,1,1.3,2.772H7.277a2.021,2.021,0,0,0-.129-.729,1.483,1.483,0,0,0-.4-.575A1.866,1.866,0,0,0,6.084,2.7a3,3,0,0,0-.944-.133,3.342,3.342,0,0,0-.914.112,1.889,1.889,0,0,0-.641.309A1.321,1.321,0,0,0,3.2,3.45a1.277,1.277,0,0,0-.129.567,1.211,1.211,0,0,0,.654,1.034,7.557,7.557,0,0,0,1.92.777,12.892,12.892,0,0,1,1.866.7,5.554,5.554,0,0,1,1.345.875,3.364,3.364,0,0,1,.815,1.1A3.318,3.318,0,0,1,9.95,9.887a3.136,3.136,0,0,1-.334,1.468,3.057,3.057,0,0,1-.949,1.085,4.552,4.552,0,0,1-1.483.678,7.376,7.376,0,0,1-1.937.237A7.712,7.712,0,0,1,3.964,13.246Zm44.129-.064V3.9h2.432L50.6,5a2.829,2.829,0,0,1,.9-.94,2.279,2.279,0,0,1,1.247-.338,2.823,2.823,0,0,1,.432.034,2.775,2.775,0,0,1,.37.077l-.035,2.386c-.131-.017-.284-.032-.459-.047s-.331-.022-.468-.022a2.648,2.648,0,0,0-1.225.245,1.53,1.53,0,0,0-.69.708v6.076Z" transform="translate(55.456 28.615)" fill="#111"/>
    </g>
  </g>
</svg>
